<svg id="Ebene_1" data-name="Ebene 1" xmlns="http://www.w3.org/2000/svg" viewBox="0 0 570.25 439.59"><defs><style>.cls-1{fill:#fff;}.cls-2{fill:none;stroke:#fff;stroke-miterlimit:10;stroke-width:12.8px;}</style></defs><path class="cls-1" d="M42.37,138.11V158.6H66.45v6.46H42.37v25.19H34.43v-58.6H70.54v6.46Z" transform="translate(0 -78.45)"/><path class="cls-1" d="M92.86,148.17a21.29,21.29,0,0,1,8.18,1.51,17.49,17.49,0,0,1,6.22,4.3,18.84,18.84,0,0,1,3.94,6.72,29.11,29.11,0,0,1,0,17.65,18.93,18.93,0,0,1-3.94,6.7,17.31,17.31,0,0,1-6.22,4.28,21.48,21.48,0,0,1-8.18,1.49,21.76,21.76,0,0,1-8.24-1.49,17.26,17.26,0,0,1-6.23-4.28,19,19,0,0,1-4-6.7,29.11,29.11,0,0,1,0-17.65,18.86,18.86,0,0,1,4-6.72,17.44,17.44,0,0,1,6.23-4.3A21.57,21.57,0,0,1,92.86,148.17Zm0,37q6.14,0,9.16-4.11c2-2.73,3-6.56,3-11.46s-1-8.78-3-11.53S97,153.9,92.86,153.9A12.85,12.85,0,0,0,87.44,155,10,10,0,0,0,83.6,158,13.66,13.66,0,0,0,81.31,163a26.65,26.65,0,0,0-.75,6.61c0,4.9,1,8.73,3,11.46S88.72,185.13,92.86,185.13Z" transform="translate(0 -78.45)"/><path class="cls-1" d="M128.68,157.13a18.81,18.81,0,0,1,4.82-6.65,10.57,10.57,0,0,1,7-2.39,10.85,10.85,0,0,1,2.51.29,7,7,0,0,1,2.15.89l-.53,5.44a1.18,1.18,0,0,1-1.23,1,8.9,8.9,0,0,1-1.68-.25,11.65,11.65,0,0,0-2.49-.25,10,10,0,0,0-3.5.58,8.2,8.2,0,0,0-2.74,1.69,12.16,12.16,0,0,0-2.16,2.78,24.32,24.32,0,0,0-1.74,3.79v26.17h-7.32V148.83h4.17a2.37,2.37,0,0,1,1.64.44,2.81,2.81,0,0,1,.61,1.56Z" transform="translate(0 -78.45)"/><path class="cls-1" d="M185.6,148.83v41.42h-4.34a1.86,1.86,0,0,1-2-1.52l-.57-4.45a22.8,22.8,0,0,1-6,4.8A15.92,15.92,0,0,1,165,190.9a15,15,0,0,1-6-1.13,11.87,11.87,0,0,1-4.36-3.16,13.5,13.5,0,0,1-2.63-5,22,22,0,0,1-.88-6.42V148.83h7.28v26.41q0,4.69,2.14,7.28t6.56,2.57a12.41,12.41,0,0,0,6-1.53,19.17,19.17,0,0,0,5.17-4.23v-30.5Z" transform="translate(0 -78.45)"/><path class="cls-1" d="M197.13,190.25V148.83h4.37a1.79,1.79,0,0,1,1.92,1.51l.53,4.25a21.17,21.17,0,0,1,5.16-4.62,12.14,12.14,0,0,1,6.62-1.8,9.77,9.77,0,0,1,6.77,2.33,13.1,13.1,0,0,1,3.74,6.3,13.68,13.68,0,0,1,2.31-3.89,13,13,0,0,1,3.17-2.69,13.48,13.48,0,0,1,3.74-1.56,16.53,16.53,0,0,1,4-.49,15.37,15.37,0,0,1,5.82,1,11.56,11.56,0,0,1,4.34,3,13.74,13.74,0,0,1,2.72,4.93,22,22,0,0,1,.94,6.68v26.38H246V163.87q0-4.86-2.13-7.38a7.6,7.6,0,0,0-6.13-2.51,9.35,9.35,0,0,0-3.42.63,8.23,8.23,0,0,0-2.84,1.86,8.76,8.76,0,0,0-1.94,3.09,11.91,11.91,0,0,0-.72,4.31v26.38H221.5V163.87q0-5-2-7.44a7.08,7.08,0,0,0-5.84-2.45,9.1,9.1,0,0,0-5,1.45,16.53,16.53,0,0,0-4.21,3.94v30.88Z" transform="translate(0 -78.45)"/><path class="cls-1" d="M138.33,288.8a58,58,0,0,1-3.76,21.09,49.53,49.53,0,0,1-10.64,16.8,48.32,48.32,0,0,1-16.54,11.06,56,56,0,0,1-21.48,4,55.77,55.77,0,0,1-21.41-4,48.68,48.68,0,0,1-16.58-11.06,49.7,49.7,0,0,1-10.71-16.8,60.57,60.57,0,0,1,0-42.18,49.75,49.75,0,0,1,10.71-16.79A48.53,48.53,0,0,1,64.5,239.86a55.77,55.77,0,0,1,21.41-4,58,58,0,0,1,14.82,1.83,52.24,52.24,0,0,1,12.75,5.16A46.62,46.62,0,0,1,123.9,251a49.19,49.19,0,0,1,7.84,10.63,52.54,52.54,0,0,1,4.91,12.75A60.68,60.68,0,0,1,138.33,288.8Zm-19.7,0a47.4,47.4,0,0,0-2.29-15.28,32.84,32.84,0,0,0-6.51-11.5,28,28,0,0,0-10.28-7.23,35.35,35.35,0,0,0-13.64-2.51,35.35,35.35,0,0,0-13.64,2.51A28.2,28.2,0,0,0,62,262a32.45,32.45,0,0,0-6.55,11.5,52.16,52.16,0,0,0,0,30.57A32.19,32.19,0,0,0,62,315.55a28.37,28.37,0,0,0,10.32,7.2,35.35,35.35,0,0,0,13.64,2.5,35.35,35.35,0,0,0,13.64-2.5,28.13,28.13,0,0,0,10.28-7.2,32.57,32.57,0,0,0,6.51-11.46A47.42,47.42,0,0,0,118.63,288.8Z" transform="translate(0 -78.45)"/><path class="cls-1" d="M156.88,340.58V280.43l-6.38-1a7.52,7.52,0,0,1-3.33-1.46,3.68,3.68,0,0,1-1.25-3v-7.23h11V263.6a31.92,31.92,0,0,1,1.89-11.32,23,23,0,0,1,14.08-13.89,33.09,33.09,0,0,1,11.45-1.86,31.63,31.63,0,0,1,9.46,1.36l-.36,8.81a3,3,0,0,1-.57,1.64,3.05,3.05,0,0,1-1.33,1,7.28,7.28,0,0,1-1.9.43c-.71.07-1.48.11-2.29.11a21,21,0,0,0-5.62.68,9.45,9.45,0,0,0-4.19,2.36,10.57,10.57,0,0,0-2.61,4.44,22.32,22.32,0,0,0-.9,6.84v3.58h29.29v-6.52a31.64,31.64,0,0,1,1.9-11.31A22.92,22.92,0,0,1,219.25,236a33.19,33.19,0,0,1,11.46-1.87,34.35,34.35,0,0,1,4.83.33,33.86,33.86,0,0,1,4.62,1l-.43,8.88a2.65,2.65,0,0,1-1.9,2.62,14,14,0,0,1-4.11.53,21.39,21.39,0,0,0-5.63.68,9.62,9.62,0,0,0-4.19,2.37,10.78,10.78,0,0,0-2.61,4.44,22.31,22.31,0,0,0-.89,6.84v5.94h19v12.6H221v60.23H203.28V280.35H174.56v60.23Z" transform="translate(0 -78.45)"/><path class="cls-1" d="M261.14,306.06a35,35,0,0,0,2,9.78,20,20,0,0,0,4.15,6.8,16.22,16.22,0,0,0,6.13,4,22.27,22.27,0,0,0,7.84,1.33,24.27,24.27,0,0,0,7.41-1,33.89,33.89,0,0,0,5.44-2.22q2.33-1.22,4.08-2.22a7,7,0,0,1,3.41-1,3.67,3.67,0,0,1,3.29,1.65l5.08,6.44a29.24,29.24,0,0,1-6.59,5.77,36.79,36.79,0,0,1-7.62,3.72,41.69,41.69,0,0,1-8.09,2,58.34,58.34,0,0,1-8,.57,39.33,39.33,0,0,1-14.25-2.54A31.87,31.87,0,0,1,254,331.59a35.31,35.31,0,0,1-7.66-12.32,47.67,47.67,0,0,1-2.79-17A40.77,40.77,0,0,1,246,288.12a34,34,0,0,1,7-11.53,33,33,0,0,1,11.1-7.77A36.74,36.74,0,0,1,278.83,266a36,36,0,0,1,12.82,2.22,28,28,0,0,1,10.1,6.48,30.13,30.13,0,0,1,6.62,10.46,38.92,38.92,0,0,1,2.4,14.14q0,4-.86,5.41c-.57.93-1.67,1.39-3.29,1.39Zm33.73-10.67a21.43,21.43,0,0,0-1-6.48,15.38,15.38,0,0,0-2.9-5.33A13.47,13.47,0,0,0,286.1,280a16.87,16.87,0,0,0-6.91-1.32q-7.67,0-12.07,4.36t-5.62,12.39Z" transform="translate(0 -78.45)"/><path class="cls-1" d="M340.56,276.13a48.17,48.17,0,0,1,4.69-4.12,28.87,28.87,0,0,1,18-6.05,26.34,26.34,0,0,1,10.67,2,21,21,0,0,1,7.77,5.73,25.28,25.28,0,0,1,4.73,8.81A37.54,37.54,0,0,1,388,293.82v46.76H370.35V293.82q0-6.74-3.08-10.42t-9.38-3.69a18.35,18.35,0,0,0-8.59,2.08,30.57,30.57,0,0,0-7.59,5.65v53.14H324V267.11h10.81a4.34,4.34,0,0,1,4.51,3.22Z" transform="translate(0 -78.45)"/><path class="cls-1" d="M418.4,306.06a35,35,0,0,0,2,9.78,20,20,0,0,0,4.15,6.8,16.26,16.26,0,0,0,6.12,4,22.37,22.37,0,0,0,7.85,1.33,24.27,24.27,0,0,0,7.41-1,34.28,34.28,0,0,0,5.44-2.22q2.33-1.22,4.08-2.22a6.92,6.92,0,0,1,3.4-1,3.67,3.67,0,0,1,3.3,1.65l5.08,6.44a29.46,29.46,0,0,1-6.59,5.77,36.79,36.79,0,0,1-7.62,3.72,41.61,41.61,0,0,1-8.1,2,58.08,58.08,0,0,1-8,.57,39.33,39.33,0,0,1-14.25-2.54,31.87,31.87,0,0,1-11.46-7.52,35.16,35.16,0,0,1-7.66-12.32,47.67,47.67,0,0,1-2.79-17,40.77,40.77,0,0,1,2.43-14.15,34,34,0,0,1,7-11.53,32.85,32.85,0,0,1,11.1-7.77A36.74,36.74,0,0,1,436.09,266a36,36,0,0,1,12.82,2.22,28,28,0,0,1,10.1,6.48,30.13,30.13,0,0,1,6.62,10.46,38.92,38.92,0,0,1,2.4,14.14q0,4-.86,5.41c-.57.93-1.67,1.39-3.29,1.39Zm33.73-10.67a21.43,21.43,0,0,0-1-6.48,15.4,15.4,0,0,0-2.91-5.33,13.35,13.35,0,0,0-4.9-3.62,16.9,16.9,0,0,0-6.91-1.32q-7.67,0-12.07,4.36t-5.62,12.39Z" transform="translate(0 -78.45)"/><path class="cls-1" d="M199.84,381.62A6.53,6.53,0,0,1,198,383.8a4.07,4.07,0,0,1-2.4.68,6.14,6.14,0,0,1-3.25-1.11q-1.76-1.11-4.19-2.47a34.31,34.31,0,0,0-5.7-2.47,23.93,23.93,0,0,0-7.7-1.11,22.75,22.75,0,0,0-7,1,14.71,14.71,0,0,0-5,2.68,10.68,10.68,0,0,0-3,4.12,13.47,13.47,0,0,0-1,5.26,9.15,9.15,0,0,0,2,6.09,17,17,0,0,0,5.41,4.15,49,49,0,0,0,7.66,3.08c2.87.91,5.8,1.88,8.81,2.9a84.17,84.17,0,0,1,8.81,3.58,30.31,30.31,0,0,1,7.66,5.16,23.45,23.45,0,0,1,5.41,7.63,26.46,26.46,0,0,1,2,10.95A35.67,35.67,0,0,1,204.1,447a30.23,30.23,0,0,1-7,10.67,33.07,33.07,0,0,1-11.28,7.17,41.56,41.56,0,0,1-15.25,2.61,48.83,48.83,0,0,1-9.74-1,50.2,50.2,0,0,1-9.2-2.76,49,49,0,0,1-8.27-4.29,39.67,39.67,0,0,1-6.88-5.59l5.66-9.24A6.29,6.29,0,0,1,144,443a4.76,4.76,0,0,1,2.44-.68,6.81,6.81,0,0,1,3.86,1.47c1.39,1,3,2.06,4.95,3.26a39,39,0,0,0,6.69,3.26,25.7,25.7,0,0,0,9.2,1.46q8.24,0,12.75-3.9t4.51-11.21a10.41,10.41,0,0,0-2-6.66,16.53,16.53,0,0,0-5.41-4.33,40,40,0,0,0-7.66-3c-2.86-.81-5.78-1.69-8.74-2.65a73.54,73.54,0,0,1-8.73-3.44,28,28,0,0,1-7.66-5.23,23.61,23.61,0,0,1-5.41-8.05,30.71,30.71,0,0,1-2-11.92,28.61,28.61,0,0,1,8.81-20.56,32,32,0,0,1,10.59-6.66,39,39,0,0,1,14.47-2.5,48.31,48.31,0,0,1,16.9,2.86,38.11,38.11,0,0,1,13.18,8Z" transform="translate(0 -78.45)"/><path class="cls-1" d="M241.8,467.48q-9.59,0-14.71-5.41T222,447.14v-41h-7.52a3.46,3.46,0,0,1-2.44-.93,3.63,3.63,0,0,1-1-2.8v-7l11.82-1.94,3.72-20.05a4,4,0,0,1,1.36-2.22,4.09,4.09,0,0,1,2.58-.79h9.17V393.5h19.62v12.61H239.66v39.81a7.91,7.91,0,0,0,1.68,5.37,5.8,5.8,0,0,0,4.62,1.94,8.17,8.17,0,0,0,2.76-.4,14.93,14.93,0,0,0,1.93-.82c.55-.29,1-.56,1.47-.82a2.4,2.4,0,0,1,1.29-.4,2,2,0,0,1,1.28.4,5.55,5.55,0,0,1,1.08,1.18l5.3,8.59a26.82,26.82,0,0,1-8.88,4.87A33,33,0,0,1,241.8,467.48Z" transform="translate(0 -78.45)"/><path class="cls-1" d="M268.87,403.1q12.67-11.6,30.51-11.6a29.77,29.77,0,0,1,11.53,2.11,24.45,24.45,0,0,1,8.59,5.87,25.26,25.26,0,0,1,5.34,9,34.78,34.78,0,0,1,1.82,11.46v46.4h-8a8.08,8.08,0,0,1-3.86-.75,5.16,5.16,0,0,1-2.15-3l-1.58-5.3a62.21,62.21,0,0,1-5.44,4.4,32.25,32.25,0,0,1-5.51,3.19,29.9,29.9,0,0,1-6.13,2,35.48,35.48,0,0,1-7.19.68,28.41,28.41,0,0,1-8.6-1.25,19,19,0,0,1-6.8-3.76,17,17,0,0,1-4.44-6.23,22.14,22.14,0,0,1-1.58-8.67,17.28,17.28,0,0,1,.93-5.55,16.34,16.34,0,0,1,3-5.26,25.28,25.28,0,0,1,5.48-4.73,35.6,35.6,0,0,1,8.27-3.87,72.21,72.21,0,0,1,11.42-2.68,113.91,113.91,0,0,1,14.9-1.25v-4.3q0-7.38-3.16-10.92t-9.09-3.55a21.6,21.6,0,0,0-7.13,1,29.14,29.14,0,0,0-5,2.25L281.15,411a7.7,7.7,0,0,1-3.9,1,5.07,5.07,0,0,1-3.15-1,8.06,8.06,0,0,1-2.08-2.25ZM309.41,435a98.51,98.51,0,0,0-12.89,1.32,34.66,34.66,0,0,0-8.38,2.47,11.11,11.11,0,0,0-4.52,3.51,7.68,7.68,0,0,0-1.36,4.37q0,4.65,2.76,6.66a11.94,11.94,0,0,0,7.2,2,20.83,20.83,0,0,0,9.41-2,27.81,27.81,0,0,0,7.78-6Z" transform="translate(0 -78.45)"/><path class="cls-1" d="M407.08,359.92V466.33H396.27a4.16,4.16,0,0,1-4.44-3.22l-1.5-7.09a37.15,37.15,0,0,1-10.21,8.24,27.56,27.56,0,0,1-13.43,3.15A23.94,23.94,0,0,1,347,457.63a34.56,34.56,0,0,1-5.59-11.78,59.58,59.58,0,0,1-2-16,50.09,50.09,0,0,1,2.22-15.18,37,37,0,0,1,6.37-12.17,29.68,29.68,0,0,1,10-8.06,28.66,28.66,0,0,1,13-2.9,25.89,25.89,0,0,1,10.53,1.93,26.9,26.9,0,0,1,7.8,5.23V359.92Zm-17.69,51.7a17.31,17.31,0,0,0-6.55-5.15,19.16,19.16,0,0,0-7.62-1.51,16.81,16.81,0,0,0-7.24,1.51,14.51,14.51,0,0,0-5.51,4.54,21.82,21.82,0,0,0-3.51,7.74,44.38,44.38,0,0,0-1.22,11.06,49.19,49.19,0,0,0,1,10.92,21.46,21.46,0,0,0,3,7.31,11.42,11.42,0,0,0,4.73,4.08,15.14,15.14,0,0,0,6.23,1.25,18.09,18.09,0,0,0,9.38-2.29,27.79,27.79,0,0,0,7.3-6.52Z" transform="translate(0 -78.45)"/><path class="cls-1" d="M449.05,467.48q-9.6,0-14.72-5.41t-5.12-14.93v-41h-7.52a3.43,3.43,0,0,1-2.43-.93,3.63,3.63,0,0,1-1-2.8v-7l11.82-1.94,3.72-20.05a4,4,0,0,1,1.36-2.22,4.09,4.09,0,0,1,2.58-.79h9.17V393.5h19.62v12.61H446.9v39.81a7.91,7.91,0,0,0,1.68,5.37,5.8,5.8,0,0,0,4.62,1.94,8.13,8.13,0,0,0,2.76-.4,14.35,14.35,0,0,0,1.93-.82c.55-.29,1-.56,1.47-.82a2.4,2.4,0,0,1,1.29-.4,2,2,0,0,1,1.29.4,5.82,5.82,0,0,1,1.07,1.18l5.3,8.59a26.82,26.82,0,0,1-8.88,4.87A33,33,0,0,1,449.05,467.48Z" transform="translate(0 -78.45)"/><path class="cls-1" d="M182.79,496.21a11.92,11.92,0,0,1,4.39.77,9.26,9.26,0,0,1,5.45,5.63,14.08,14.08,0,0,1,0,9,9.58,9.58,0,0,1-2.11,3.43,9.4,9.4,0,0,1-3.34,2.18,11.92,11.92,0,0,1-4.39.77,12.09,12.09,0,0,1-4.42-.77,9.26,9.26,0,0,1-3.35-2.18,9.6,9.6,0,0,1-2.12-3.43,14.27,14.27,0,0,1,0-9,9.29,9.29,0,0,1,5.47-5.63A12.09,12.09,0,0,1,182.79,496.21Zm0,18.88a5.84,5.84,0,0,0,4.92-2.1,9.39,9.39,0,0,0,1.62-5.86,9.48,9.48,0,0,0-1.62-5.89,5.84,5.84,0,0,0-4.92-2.11,7.26,7.26,0,0,0-2.91.55,5.4,5.4,0,0,0-2.06,1.56,6.9,6.9,0,0,0-1.23,2.52,12.91,12.91,0,0,0-.41,3.37,9.32,9.32,0,0,0,1.64,5.86A5.91,5.91,0,0,0,182.79,515.09Z" transform="translate(0 -78.45)"/><path class="cls-1" d="M199.27,517.7v-18l-2.45-.27a2,2,0,0,1-.76-.33.72.72,0,0,1-.3-.63V497h3.51v-1.73a9,9,0,0,1,.54-3.23,6.49,6.49,0,0,1,1.54-2.38,6.38,6.38,0,0,1,2.4-1.47,9.23,9.23,0,0,1,3.16-.5,8.91,8.91,0,0,1,2.75.41l-.09,1.88a.56.56,0,0,1-.58.55c-.36,0-.84,0-1.44,0a6.49,6.49,0,0,0-1.83.24,3.5,3.5,0,0,0-1.42.8,3.73,3.73,0,0,0-.91,1.5,7.16,7.16,0,0,0-.32,2.28V497h10v-2.27a9,9,0,0,1,.54-3.23,6.49,6.49,0,0,1,1.54-2.38,6.38,6.38,0,0,1,2.4-1.47,9.23,9.23,0,0,1,3.16-.51,8.69,8.69,0,0,1,2.74.42l-.08,1.86a.56.56,0,0,1-.59.54c-.35,0-.83.05-1.43.05a6.2,6.2,0,0,0-1.84.25,3.31,3.31,0,0,0-1.41.81,3.61,3.61,0,0,0-.91,1.48,6.89,6.89,0,0,0-.32,2.28V497h6.41v2.7H217v18H213.1v-18h-9.9v18Z" transform="translate(0 -78.45)"/><path class="cls-1" d="M244.36,514.74a7.5,7.5,0,0,1-1.74,1.45,10.67,10.67,0,0,1-2.16,1,13.6,13.6,0,0,1-2.38.6,15.54,15.54,0,0,1-2.44.2,11.66,11.66,0,0,1-4.24-.75,9.15,9.15,0,0,1-3.36-2.17,9.78,9.78,0,0,1-2.21-3.54,13.92,13.92,0,0,1-.79-4.84,11.7,11.7,0,0,1,.72-4.14,9.61,9.61,0,0,1,2.05-3.33,9.47,9.47,0,0,1,3.27-2.22,11.3,11.3,0,0,1,4.34-.8,10.35,10.35,0,0,1,3.7.64,8.11,8.11,0,0,1,2.94,1.84,8.31,8.31,0,0,1,1.95,3,11,11,0,0,1,.7,4,2.31,2.31,0,0,1-.2,1.17.83.83,0,0,1-.75.29H228.9a11.81,11.81,0,0,0,.59,3.49,6.92,6.92,0,0,0,1.43,2.48,5.9,5.9,0,0,0,2.2,1.48,7.82,7.82,0,0,0,2.85.49,9,9,0,0,0,2.54-.32,12.82,12.82,0,0,0,1.83-.7c.51-.25.94-.49,1.28-.7a1.75,1.75,0,0,1,.89-.33.88.88,0,0,1,.75.36Zm-3.16-9.92a6.85,6.85,0,0,0-.39-2.37,5.15,5.15,0,0,0-1.12-1.86,4.77,4.77,0,0,0-1.79-1.21,7,7,0,0,0-6.83,1.12,7.14,7.14,0,0,0-2,4.32Z" transform="translate(0 -78.45)"/><path class="cls-1" d="M253.18,499.62a11.26,11.26,0,0,1,1.54-1.4,9.93,9.93,0,0,1,1.72-1.08,9,9,0,0,1,1.93-.69,9.66,9.66,0,0,1,2.21-.24,8.24,8.24,0,0,1,3.21.58,6.19,6.19,0,0,1,2.33,1.62,7.14,7.14,0,0,1,1.41,2.54,10.31,10.31,0,0,1,.49,3.28V517.7h-3.93V504.23a5.57,5.57,0,0,0-1.15-3.73,4.41,4.41,0,0,0-3.5-1.32,6.81,6.81,0,0,0-3.24.79,10.78,10.78,0,0,0-2.78,2.15V517.7h-3.93V496.54h2.35a1,1,0,0,1,1,.78Z" transform="translate(0 -78.45)"/><path class="cls-1" d="M292,514.74a7.45,7.45,0,0,1-1.73,1.45,11,11,0,0,1-2.17,1,13.38,13.38,0,0,1-2.38.6,15.51,15.51,0,0,1-2.43.2,11.68,11.68,0,0,1-4.25-.75,9.15,9.15,0,0,1-3.36-2.17,9.92,9.92,0,0,1-2.21-3.54,13.92,13.92,0,0,1-.79-4.84,11.7,11.7,0,0,1,.72-4.14,9.61,9.61,0,0,1,2.05-3.33,9.47,9.47,0,0,1,3.27-2.22,11.35,11.35,0,0,1,4.35-.8,10.29,10.29,0,0,1,3.69.64,8.23,8.23,0,0,1,2.95,1.84,8.42,8.42,0,0,1,1.94,3,10.79,10.79,0,0,1,.7,4,2.31,2.31,0,0,1-.2,1.17.82.82,0,0,1-.74.29H276.58a11.51,11.51,0,0,0,.58,3.49,6.79,6.79,0,0,0,1.44,2.48,5.79,5.79,0,0,0,2.19,1.48,7.84,7.84,0,0,0,2.86.49,9,9,0,0,0,2.53-.32,12.82,12.82,0,0,0,1.83-.7c.51-.25.94-.49,1.29-.7a1.72,1.72,0,0,1,.89-.33.85.85,0,0,1,.74.36Zm-3.16-9.92a6.85,6.85,0,0,0-.39-2.37,5.27,5.27,0,0,0-1.11-1.86,4.94,4.94,0,0,0-1.79-1.21,7.06,7.06,0,0,0-6.84,1.12,7.14,7.14,0,0,0-2,4.32Z" transform="translate(0 -78.45)"/><path class="cls-1" d="M310.12,500a.88.88,0,0,1-.82.46,1.46,1.46,0,0,1-.74-.23l-1-.51a10.29,10.29,0,0,0-1.44-.52,7.25,7.25,0,0,0-2-.24,6.13,6.13,0,0,0-1.78.24,4.3,4.3,0,0,0-1.34.66,2.92,2.92,0,0,0-.86,1,2.48,2.48,0,0,0-.3,1.2,2,2,0,0,0,.5,1.36,4.4,4.4,0,0,0,1.3.94,13.05,13.05,0,0,0,1.85.7c.68.2,1.39.41,2.11.64s1.43.49,2.12.77a7.91,7.91,0,0,1,1.85,1,4.84,4.84,0,0,1,1.3,1.54,4.47,4.47,0,0,1,.5,2.18,6.72,6.72,0,0,1-.55,2.7,5.88,5.88,0,0,1-1.63,2.15,7.81,7.81,0,0,1-2.63,1.44,11.57,11.57,0,0,1-3.6.52,11.69,11.69,0,0,1-4.21-.72,10.86,10.86,0,0,1-3.21-1.85l.92-1.42a1.4,1.4,0,0,1,.42-.42,1.15,1.15,0,0,1,.61-.15,1.49,1.49,0,0,1,.84.3c.29.19.65.41,1.06.64a7.9,7.9,0,0,0,1.53.65,7.17,7.17,0,0,0,2.24.29,6.29,6.29,0,0,0,2-.28,4.31,4.31,0,0,0,1.43-.76,3.12,3.12,0,0,0,.85-1.11,3.33,3.33,0,0,0,.27-1.33,2.17,2.17,0,0,0-.49-1.46,4.2,4.2,0,0,0-1.31-1,11,11,0,0,0-1.85-.71c-.7-.2-1.41-.41-2.13-.64a21.49,21.49,0,0,1-2.13-.76,7.35,7.35,0,0,1-1.86-1.07,4.76,4.76,0,0,1-1.8-3.91,5.43,5.43,0,0,1,.53-2.33,5.65,5.65,0,0,1,1.54-2,7.83,7.83,0,0,1,2.48-1.35,10.51,10.51,0,0,1,3.36-.5,11,11,0,0,1,3.93.66,9.47,9.47,0,0,1,3,1.8Z" transform="translate(0 -78.45)"/><path class="cls-1" d="M323,518a5.52,5.52,0,0,1-4.05-1.4,5.44,5.44,0,0,1-1.42-4V499.66h-2.67a.92.92,0,0,1-.6-.2.76.76,0,0,1-.24-.62v-1.48l3.65-.44.9-6.54a.87.87,0,0,1,.29-.51.92.92,0,0,1,.6-.2h2V497h6.43v2.7h-6.43v12.7a2.62,2.62,0,0,0,.68,2,2.45,2.45,0,0,0,1.76.65,3.07,3.07,0,0,0,1.06-.16,4.79,4.79,0,0,0,.78-.34c.22-.13.41-.24.56-.35a.77.77,0,0,1,.41-.15.68.68,0,0,1,.55.35l1.14,1.78a7.78,7.78,0,0,1-2.44,1.41A8.66,8.66,0,0,1,323,518Z" transform="translate(0 -78.45)"/><path class="cls-1" d="M331.34,499.53a12.78,12.78,0,0,1,4-2.53,13,13,0,0,1,4.72-.83,8.77,8.77,0,0,1,3.31.58,6.88,6.88,0,0,1,2.44,1.63,6.74,6.74,0,0,1,1.49,2.53,10,10,0,0,1,.51,3.26V517.7H346a1.83,1.83,0,0,1-.87-.17,1.24,1.24,0,0,1-.49-.7l-.44-2a19.72,19.72,0,0,1-1.71,1.37,9.52,9.52,0,0,1-1.75,1,10.31,10.31,0,0,1-2,.63,11.69,11.69,0,0,1-2.31.22,8.37,8.37,0,0,1-2.44-.35,5.79,5.79,0,0,1-2-1,4.81,4.81,0,0,1-1.33-1.74,5.87,5.87,0,0,1-.5-2.5A4.41,4.41,0,0,1,331,510a6.16,6.16,0,0,1,2.34-2.06,15.9,15.9,0,0,1,4.24-1.47,32.85,32.85,0,0,1,6.41-.66v-1.65a5.45,5.45,0,0,0-1.12-3.73,4.16,4.16,0,0,0-3.27-1.26,7.37,7.37,0,0,0-2.43.34,9.91,9.91,0,0,0-1.69.77l-1.23.78a1.8,1.8,0,0,1-1,.34,1.12,1.12,0,0,1-.68-.2,1.72,1.72,0,0,1-.48-.49ZM344,508.18a32.67,32.67,0,0,0-4.6.41,13,13,0,0,0-3.09.84,4.32,4.32,0,0,0-1.74,1.23,2.59,2.59,0,0,0-.54,1.59,3.33,3.33,0,0,0,.29,1.44,2.57,2.57,0,0,0,.78,1,3.23,3.23,0,0,0,1.16.57,5.57,5.57,0,0,0,1.44.18,8.5,8.5,0,0,0,1.89-.2,7.17,7.17,0,0,0,1.61-.58,9.4,9.4,0,0,0,1.45-.89,13.38,13.38,0,0,0,1.35-1.19Z" transform="translate(0 -78.45)"/><path class="cls-1" d="M372.12,486.94V517.7h-2.33a1,1,0,0,1-1.05-.77l-.35-2.57a12,12,0,0,1-3.25,2.63,8.6,8.6,0,0,1-4.21,1,8.47,8.47,0,0,1-3.47-.7,7.22,7.22,0,0,1-2.66-2.06,9.71,9.71,0,0,1-1.69-3.39,16.78,16.78,0,0,1-.59-4.65,14,14,0,0,1,.66-4.36,10.62,10.62,0,0,1,1.89-3.5,8.78,8.78,0,0,1,3-2.33,9.41,9.41,0,0,1,4-.84,8.44,8.44,0,0,1,3.5.66,8.66,8.66,0,0,1,2.6,1.82V486.94Zm-3.91,14.64a6.24,6.24,0,0,0-2.37-1.95,7.07,7.07,0,0,0-2.85-.56,5.73,5.73,0,0,0-4.76,2.11,9.46,9.46,0,0,0-1.67,6,14.52,14.52,0,0,0,.37,3.54,6.69,6.69,0,0,0,1.1,2.42,4.23,4.23,0,0,0,1.78,1.39,6.21,6.21,0,0,0,2.39.44,6.56,6.56,0,0,0,3.37-.84,9.22,9.22,0,0,0,2.64-2.36Z" transform="translate(0 -78.45)"/><path class="cls-1" d="M385.13,518a5.55,5.55,0,0,1-4.05-1.4,5.43,5.43,0,0,1-1.41-4V499.66H377a.92.92,0,0,1-.59-.2.76.76,0,0,1-.24-.62v-1.48l3.64-.44.9-6.54a.87.87,0,0,1,.9-.71h2V497H390v2.7h-6.43v12.7a2.59,2.59,0,0,0,.68,2A2.44,2.44,0,0,0,386,515a3.13,3.13,0,0,0,1.07-.16,4.79,4.79,0,0,0,.78-.34l.56-.35a.77.77,0,0,1,.4-.15.66.66,0,0,1,.55.35l1.14,1.78a7.62,7.62,0,0,1-2.43,1.41A8.76,8.76,0,0,1,385.13,518Z" transform="translate(0 -78.45)"/><path class="cls-1" d="M393.39,515.41a2.53,2.53,0,0,1,.21-1,2.41,2.41,0,0,1,.57-.83A2.69,2.69,0,0,1,395,513a2.81,2.81,0,0,1,1.08-.21,2.72,2.72,0,0,1,1.07.21,2.78,2.78,0,0,1,.88.57,2.64,2.64,0,0,1,.6.83,2.54,2.54,0,0,1,.22,1,2.5,2.5,0,0,1-.22,1,2.71,2.71,0,0,1-.6.82,2.6,2.6,0,0,1-.88.56,2.91,2.91,0,0,1-1.07.2,3,3,0,0,1-1.08-.2,2.51,2.51,0,0,1-.86-.56,2.47,2.47,0,0,1-.57-.82A2.5,2.5,0,0,1,393.39,515.41Z" transform="translate(0 -78.45)"/><path class="cls-1" d="M409.37,489.9a2.38,2.38,0,0,1-.23,1,3,3,0,0,1-.62.83,2.84,2.84,0,0,1-.9.58,3,3,0,0,1-1.09.2,2.86,2.86,0,0,1-1.06-.2,2.71,2.71,0,0,1-.87-.58,2.85,2.85,0,0,1-.59-.83,2.37,2.37,0,0,1-.22-1,2.45,2.45,0,0,1,.22-1,2.69,2.69,0,0,1,1.46-1.43,2.67,2.67,0,0,1,1.06-.21,2.82,2.82,0,0,1,1.09.21,3,3,0,0,1,.9.57,3,3,0,0,1,.62.86A2.46,2.46,0,0,1,409.37,489.9Zm-.84,6.64V517.7h-3.91V496.54Z" transform="translate(0 -78.45)"/><path class="cls-1" d="M418.63,499.62a11.81,11.81,0,0,1,1.53-1.4,10.4,10.4,0,0,1,1.73-1.08,8.85,8.85,0,0,1,1.93-.69,9.57,9.57,0,0,1,2.2-.24,8.26,8.26,0,0,1,3.22.58,6.27,6.27,0,0,1,2.33,1.62A7.14,7.14,0,0,1,433,501a10.61,10.61,0,0,1,.48,3.28V517.7h-3.92V504.23a5.52,5.52,0,0,0-1.16-3.73,4.38,4.38,0,0,0-3.5-1.32,6.8,6.8,0,0,0-3.23.79,10.61,10.61,0,0,0-2.78,2.15V517.7h-3.93V496.54h2.35a1,1,0,0,1,1,.78Z" transform="translate(0 -78.45)"/><path class="cls-1" d="M440.53,517.7v-18l-2.46-.27a1.92,1.92,0,0,1-.75-.33.72.72,0,0,1-.3-.63V497h3.51v-2a9,9,0,0,1,.54-3.23,6.42,6.42,0,0,1,3.94-3.86,9.48,9.48,0,0,1,3.16-.5,8.51,8.51,0,0,1,2.74.42l-.08,1.86a.55.55,0,0,1-.58.54c-.36,0-.84.05-1.44.05a6.2,6.2,0,0,0-1.84.25,3.37,3.37,0,0,0-1.41.81,3.61,3.61,0,0,0-.91,1.48,7.16,7.16,0,0,0-.32,2.28V497h6.41v2.7h-6.28v18Z" transform="translate(0 -78.45)"/><path class="cls-1" d="M463.12,496.21a12,12,0,0,1,4.39.77,9.33,9.33,0,0,1,5.45,5.63,14.08,14.08,0,0,1,0,9,9.6,9.6,0,0,1-2.12,3.43,9.27,9.27,0,0,1-3.33,2.18,12,12,0,0,1-4.39.77,12.14,12.14,0,0,1-4.43-.77,9.22,9.22,0,0,1-3.34-2.18,9.6,9.6,0,0,1-2.12-3.43,14.08,14.08,0,0,1,0-9,9.51,9.51,0,0,1,2.12-3.43,9.4,9.4,0,0,1,3.34-2.2A12.14,12.14,0,0,1,463.12,496.21Zm0,18.88A5.82,5.82,0,0,0,468,513a11.4,11.4,0,0,0,0-11.75,5.82,5.82,0,0,0-4.91-2.11,7.23,7.23,0,0,0-2.91.55,5.25,5.25,0,0,0-2.06,1.56,6.9,6.9,0,0,0-1.23,2.52,12.91,12.91,0,0,0-.41,3.37,9.32,9.32,0,0,0,1.64,5.86A5.9,5.9,0,0,0,463.12,515.09Z" transform="translate(0 -78.45)"/><polyline class="cls-2" points="371.4 31.5 266.82 135.74 0 135.74"/><polyline class="cls-2" points="301.1 101.58 380.45 101.58 463.08 19.22 535.96 19.22"/><line class="cls-2" x1="407" y1="75.81" x2="481.92" y2="75.81"/><circle class="cls-2" cx="381.69" cy="20.17" r="13.77"/><circle class="cls-2" cx="550.08" cy="20.17" r="13.77"/><circle class="cls-2" cx="496.74" cy="75.26" r="13.77"/></svg>