<?xml version="1.0" encoding="UTF-8"?> <!-- Generator: Adobe Illustrator 18.1.1, SVG Export Plug-In . SVG Version: 6.00 Build 0) --> <svg xmlns="http://www.w3.org/2000/svg" xmlns:xlink="http://www.w3.org/1999/xlink" id="Ebene_1" x="0px" y="0px" viewBox="0 0 1024 303" xml:space="preserve"> <g> <g> <path d="M848.5,215.4l-13.1,34.8h6.7l13.1-34.8H848.5z M812.1,213.4l0.8,8.7l-8.7-2.4l-0.8,5.9l7.9,0.8l-5.1,7.1l5.5,2.8l3.2-7.5 l3.6,7.5l5.5-2.8l-5.1-7.1l7.9-0.4l-0.8-5.9l-8.7,2.4l0.8-8.7h-5.9V213.4z M771.7,234.7c-1.2-1.6-3.6-3.2-6.7-4.7 c-2.4-1.2-4-2-4.7-2.4c-0.8-0.4-1.2-0.8-1.6-1.6c-0.4-0.4-0.4-1.2-0.4-1.6c0-1.2,0.4-2,1.2-2.4c0.8-0.8,2-0.8,3.2-0.8 s2.4,0,3.6,0.4c1.2,0.4,2.8,0.8,4.7,1.6l2.4-5.9c-2-0.8-3.6-1.2-5.1-2c-1.6-0.4-3.6-0.8-5.1-0.8c-3.6,0-6.7,0.8-8.7,2.8 c-2,1.6-3.2,4.4-3.2,7.1c0,1.6,0.4,3.2,0.8,4.4c0.8,1.2,1.6,2.4,2.4,3.2c1.2,0.8,2.8,2,4.7,2.8c2.4,1.2,4,2,4.4,2.4 c0.8,0.4,1.2,1.2,1.6,1.6c0.4,0.4,0.4,1.2,0.4,2c0,1.2-0.4,2-1.2,2.8c-0.8,0.8-2,0.8-3.6,0.8c-1.2,0-2.8-0.4-4.4-0.8 c-1.6-0.4-3.6-1.2-5.9-2.4v6.7c2.8,1.6,6.3,2,9.9,2c4,0,7.1-0.8,9.5-2.8c2.4-2,3.6-4.4,3.6-7.5 C773.3,238.3,772.9,236.3,771.7,234.7 M737.3,215.4h-6.7V232c0,2,0,5.1,0.4,9.5l0,0l-15-26.1h-9.5v34.8h6.7V234c0-2,0-5.1-0.4-9.9 h0.4l15,26.5h9.5v-35.2H737.3z M669.3,224.1c1.6-2,3.6-3.2,6.7-3.2c5.9,0,8.7,4,8.7,11.9s-2.8,11.9-8.7,11.9 c-2.8,0-5.1-0.8-6.7-2.8c-1.6-2-2.4-4.7-2.4-8.7C666.9,229.2,667.7,226,669.3,224.1 M688.2,219.3c-2.8-3.2-7.1-4.7-12.3-4.7 c-5.5,0-9.5,1.6-12.3,4.7c-2.8,3.2-4.4,7.5-4.4,13.4s1.6,10.3,4.4,13.4c2.8,3.2,7.1,4.7,12.3,4.7s9.5-1.6,12.3-4.7 c2.8-3.2,4.4-7.5,4.4-13.4C692.6,226.8,691,222.5,688.2,219.3 M645.1,215.4h-7.5v34.8h7.5V215.4z M616.3,221.7h9.5v-6.3h-26.5v6.3 h9.5v28.5h7.5L616.3,221.7L616.3,221.7z M570.4,235.9c2.4-7.9,4-13.1,4.4-15c0,0.4,0.4,1.2,0.8,2.4c0.4,0.8,1.6,5.1,4,12.7 L570.4,235.9L570.4,235.9z M591.7,250.2l-12.3-34.8h-9.1l-12.3,34.8h7.9l2.4-8.3H581l2.4,8.3H591.7z M537.1,236.3 c-1.2,3.6-1.6,6.3-2,7.5c0-0.8-0.4-1.6-0.8-3.6c-0.4-1.6-0.8-3.2-1.2-4.4l-6.7-20.6h-7.5l11.9,34.8h7.9l11.9-34.8h-7.5 L537.1,236.3z M486.5,224.1c1.6-2,3.6-3.2,6.7-3.2c5.9,0,8.7,4,8.7,11.9s-2.8,11.9-8.7,11.9c-2.8,0-5.1-0.8-6.7-2.8 c-1.6-2-2.4-4.7-2.4-8.7C484.1,229.2,484.9,226,486.5,224.1 M505.5,219.3c-2.8-3.2-7.1-4.7-12.3-4.7c-5.5,0-9.5,1.6-12.3,4.7 c-2.8,3.2-4.4,7.5-4.4,13.4s1.6,10.3,4.4,13.4c2.8,3.2,7.1,4.7,12.3,4.7c5.1,0,9.5-1.6,12.3-4.7c2.8-3.2,4.4-7.5,4.4-13.4 C509.8,226.8,508.3,222.5,505.5,219.3 M462.4,215.4h-6.7V232c0,2,0,5.1,0.4,9.5l0,0l-15-26.1h-9.5v34.8h6.7V234c0-2,0-5.1-0.4-9.9 h0.4l15,26.5h9.5v-35.2H462.4z M416.1,215.4h-6.7V232c0,2,0,5.1,0.4,9.5l0,0l-15-26.1h-9.5v34.8h6.7V234c0-2,0-5.1-0.4-9.9h0.4 l15,26.5h9.5v-35.2H416.1z M369.8,215.4h-7.5v34.8h7.5V215.4z"></path> <path d="M1023.7,169.9v-5.9h-14.2v-28.9h-7.5v34.8H1023.7z M969.5,155.6c2.4-7.9,4-13.1,4.4-15c0,0.4,0.4,1.2,0.8,2.4 c0.4,0.8,1.6,5.1,4,12.7H969.5z M990.9,169.9l-12.3-34.8h-9.1l-12.3,34.8h7.9l2.4-8.3h12.7l2.4,8.3H990.9z M942.6,141.4 c1.2,0.4,2.8,1.2,4,1.6l2.4-5.9c-3.6-1.6-6.7-2.4-10.3-2.4c-3.2,0-6.3,0.8-8.7,2.4c-2.4,1.6-4.4,3.6-5.5,6.3c-1.2,2.8-2,5.9-2,9.5 c0,5.9,1.2,10.3,4,13.1c2.8,3.2,6.7,4.7,11.5,4.7c3.6,0,6.7-0.8,9.5-2v-6.3c-3.6,1.2-6.3,2-8.7,2c-5.9,0-8.7-4-8.7-11.5 c0-3.6,0.8-6.7,2.4-8.7c1.6-2,3.6-3.2,6.3-3.2C939.8,140.6,941,141,942.6,141.4 M908.2,135.1h-7.5v34.8h7.5V135.1z M885.2,135.1 h-6.7v16.6c0,2,0,5.1,0.4,9.5l0,0l-15-26.1h-9.5v34.8h6.7v-16.2c0-2,0-5.1-0.4-9.9h0.4l15,26.5h9.5v-35.2H885.2z M838.6,135.1 h-7.5v13.8h-13.8v-13.4h-7.5v34.8h7.5v-15h13.8v15h7.5V135.1z M791.1,141.4c1.2,0.4,2.8,1.2,4,1.6l2.4-5.9 c-3.6-1.6-6.7-2.4-10.3-2.4c-3.2,0-6.3,0.8-8.7,2.4c-2.4,1.6-4.4,3.6-5.5,6.3c-1.2,2.8-2,5.9-2,9.5c0,5.9,1.2,10.3,4,13.1 c2.8,3.2,6.7,4.7,11.5,4.7c3.6,0,6.7-0.8,9.5-2v-6.3c-3.6,1.2-6.3,2-8.7,2c-5.9,0-8.7-4-8.7-11.5c0-3.6,0.8-6.7,2.4-8.7 c1.6-2,3.6-3.2,6.3-3.2C788.3,140.6,789.5,141,791.1,141.4 M758.3,163.9h-12.7v-9.1h11.9v-5.9h-11.9V141h12.7v-5.9h-20.2v34.8 h20.2V163.9z M716.7,141.4h9.5v-6.3h-26.1v6.3h9.5v28.5h7.5v-28.5H716.7z M655.8,156.4l8.3,13.4h8.3c-1.6-2.4-5.1-7.5-10.3-15 c2-0.8,3.6-2,4.7-3.6c1.2-1.6,1.6-3.6,1.6-5.5c0-3.6-1.2-5.9-3.6-7.9c-2.4-1.6-5.9-2.8-10.7-2.8h-10.3v34.8h7.5v-13.4L655.8,156.4 L655.8,156.4z M651.9,141h2.4c2.4,0,4,0.4,5.1,1.2s1.6,2,1.6,3.6c0,1.6-0.4,2.8-1.6,3.6c-1.2,0.8-2.8,1.2-5.1,1.2h-2.4V141z M607.6,143.8c1.6-2,3.6-2.8,6.7-2.8c5.9,0,8.7,4,8.7,11.9c0,7.9-2.8,11.9-8.7,11.9c-2.8,0-5.1-0.8-6.7-2.8 c-1.6-2-2.4-4.7-2.4-8.7C605.2,148.5,606,145.7,607.6,143.8 M626.1,139c-2.8-3.2-7.1-4.7-12.3-4.7c-5.5,0-9.5,1.6-12.3,4.7 c-2.8,3.2-4.4,7.5-4.4,13.4s1.6,10.3,4.4,13.4c2.8,3.2,7.1,4.7,12.3,4.7s9.5-1.6,12.3-4.7c2.8-3.2,4.4-7.5,4.4-13.4 C630.5,146.5,629.3,142.2,626.1,139 M572.7,156h11.9v-5.9h-11.9V141h12.7v-5.9h-19.8v34.8h7.1V156z M531.6,163.9h-12.7v-9.1h11.9 v-5.9h-11.9V141h12.7v-5.9h-20.2v34.8h20.2V163.9z M492.4,141.4c1.2,0.4,2.8,1.2,4,1.6l2.4-5.9c-3.6-1.6-6.7-2.4-10.3-2.4 c-3.2,0-6.3,0.8-8.7,2.4c-2.4,1.6-4.4,3.6-5.5,6.3c-1.2,2.8-2,5.9-2,9.5c0,5.9,1.2,10.3,4,13.1c2.8,3.2,6.7,4.7,11.5,4.7 c3.6,0,6.7-0.8,9.5-2v-6.3c-3.6,1.2-6.3,2-8.7,2c-5.9,0-8.7-4-8.7-11.5c0-3.6,0.8-6.7,2.4-8.7c1.6-2,3.6-3.2,6.3-3.2 C490.1,140.6,491.2,141,492.4,141.4 M441.4,155.6c2.4-7.9,4-13.1,4.4-15c0,0.4,0.4,1.2,0.8,2.4c0.4,0.8,1.6,5.1,4,12.7H441.4z M462.8,169.9l-12.3-34.8h-9.1l-12.3,34.8h7.9l2.4-8.3h12.7l2.4,8.3H462.8z M416.5,137.8c-2.4-2-5.5-2.8-9.5-2.8h-11.1v34.8h7.5 v-12.3h3.2c4.4,0,7.5-0.8,9.9-3.2c2.4-2,3.6-4.7,3.6-8.7C420,142.2,418.9,139.8,416.5,137.8 M403.4,141h3.2c2,0,3.6,0.4,4.4,1.2 c0.8,0.8,1.6,2,1.6,4c0,1.6-0.4,3.2-1.6,4c-1.2,0.8-2.8,1.2-5.1,1.2h-2.4V141z M380.9,154.4c-1.2-1.6-3.6-3.2-6.7-4.7 c-2.4-1.2-4-2-4.7-2.4c-0.8-0.4-1.2-0.8-1.6-1.6c-0.4-0.4-0.4-1.2-0.4-1.6c0-1.2,0.4-2,1.2-2.4c0.8-0.8,2-0.8,3.2-0.8 c1.2,0,2.4,0,3.6,0.4c1.2,0.4,2.8,0.8,4.7,1.6l2.4-5.9c-2-0.8-3.6-1.2-5.1-2c-1.6-0.4-3.6-0.8-5.1-0.8c-3.6,0-6.7,0.8-8.7,2.8 c-2,1.6-3.2,4.4-3.2,7.1c0,1.6,0.4,3.2,0.8,4.4c0.8,1.2,1.6,2.4,2.4,3.2c1.2,0.8,2.8,2,4.7,2.8c2.4,1.2,4,2,4.4,2.4 c0.8,0.4,1.2,1.2,1.6,1.6c0.4,0.4,0.4,1.2,0.4,2c0,1.2-0.4,2-1.2,2.8c-0.8,0.8-2,0.8-3.6,0.8c-1.2,0-2.8-0.4-4.4-0.8 c-1.6-0.4-3.6-1.2-5.9-2.4v6.7c2.8,1.6,6.3,2,9.9,2c4,0,7.1-0.8,9.5-2.8c2.4-2,3.6-4.4,3.6-7.5C382.9,158,382.1,156,380.9,154.4"></path> <path d="M710.4,83.6h-12.7v-9.1h11.9v-5.9h-11.9v-7.5h12.7v-5.9h-20.2v34.4h20.2V83.6z M664.9,75.3c-1.2,3.6-1.6,6.3-2,7.5 c0-0.8-0.4-1.6-0.8-3.6c-0.4-1.6-0.8-3.2-1.2-4.4l-6.7-20.6h-7.5l11.9,34.8h7.9l11.9-34.8h-7.5L664.9,75.3z M636,54.8h-7.5v34.8 h7.5V54.8z M607.2,61.1h9.5v-6.3h-26.1v6.3h9.5v28.5h7.5V61.1H607.2z M561.3,75.3c2.4-7.9,4-13.1,4.4-15c0,0.4,0.4,1.2,0.8,2.4 c0.4,0.8,1.6,5.1,4,12.7H561.3z M582.2,89.6L570,54.8h-9.1l-12.3,34.8h7.9l2.4-8.3h12.7l2.4,8.3H582.2z M539.1,83.6h-12.7v-9.1 h11.9v-5.9h-11.9v-7.5h12.7v-5.9h-20.2v34.4h20.2V83.6z M491.2,76.1l8.3,13.4h8.3c-1.6-2.4-5.1-7.5-10.3-15c2-0.8,3.6-2,4.7-3.6 c1.2-1.6,1.6-3.6,1.6-5.5c0-3.6-1.2-5.9-3.6-7.9c-2.4-1.6-5.9-2.8-10.7-2.8h-10.3v34.8h7.5V76.1H491.2z M487.3,60.7h2.4 c2.4,0,4,0.4,5.1,1.2c1.2,0.8,1.6,2,1.6,3.6c0,1.6-0.4,2.8-1.6,3.6c-1.2,0.8-2.8,1.2-5.1,1.2h-2.4V60.7z M460.8,61.1 c1.2,0.4,2.8,1.2,4,1.6l2.4-5.9c-3.6-1.6-6.7-2.4-10.3-2.4c-3.2,0-6.3,0.8-8.7,2.4c-2.4,1.6-4.4,3.6-5.5,6.3c-1.2,2.8-2,5.9-2,9.5 c0,5.9,1.2,10.3,4,13.1c2.8,3.2,6.7,4.7,11.5,4.7c3.6,0,6.7-0.8,9.5-2V82c-3.6,1.2-6.3,2-8.7,2c-5.9,0-8.7-4-8.7-11.5 c0-3.6,0.8-6.7,2.4-8.7c1.6-2,3.6-3.2,6.3-3.2C458,60.3,459.6,60.7,460.8,61.1 M395.1,52.4l0.8,8.7l-8.7-2.4l-0.8,5.9l7.9,0.8 l-5.1,7.1l5.5,2.8l3.2-7.5l3.6,7.5l5.5-2.8l-5.1-7.1l7.9-0.4l-0.8-5.9l-8.7,2.4l0.8-8.7h-5.9V52.4z M371,54.8l-13.1,34.8h6.7 l13.1-34.8H371z"></path> </g> <path d="M276.1,102.2c0-1.2-0.4-2-1.2-2.8L140.4,1c-1.2-0.8-2.8-0.8-4,0L1.9,99.5c-0.8,0.8-1.2,1.6-1.2,2.8v98.5l0,0 c0,1.2,0.4,2,1.2,2.8L136.8,302c0.4,0.4,1.2,0.8,2,0.8s1.6-0.4,2-0.8l134.5-98.5c0.8-0.8,1.2-1.6,1.2-2.8L276.1,102.2L276.1,102.2z M141.6,108.9l34.4,25.3l-34.4,12.7V108.9z M141.6,100.6V10.1l124.2,91l-82.3,30.1L141.6,100.6z M269.3,107v87.4l-79.5-58.2 L269.3,107z M134.8,10.1v139.2l-41.1,15L9,102.2L134.8,10.1z M6.7,108.9l79.5,58.2L6.7,196.4V108.9z M92.5,171.8l41.9,30.9v90.2 l-124.2-91L92.5,171.8z M134.8,194.4l-34.4-25.3l34.4-12.7V194.4z M141.6,293.3v-91.8c0-0.4,0-0.4,0-0.8V154l41.1-15l84.3,62.1 L141.6,293.3z"></path> </g> </svg> 