<?xml version="1.0" encoding="UTF-8" standalone="no"?>
<svg
   xmlns:svg="http://www.w3.org/2000/svg"
   xmlns="http://www.w3.org/2000/svg"
   version="1.1"
   viewBox="0 0 334.02823 355.72778"
   id="svg4555">
  <defs
     id="defs4557" />
  <g
     transform="translate(-182.98588,-354.49837)"
     id="layer1">
    <path
       d="m 511.22598,382.62183 c 0,-5.65183 -4.32533,-7.21576 -8.61968,-8.69711 -1.83233,-0.65035 -4.17564,-1.30069 -5.87893,-2.25557 -1.58458,-0.91874 -2.67365,-2.0904 -2.67365,-3.87111 0,-3.74208 3.46335,-5.21826 6.59121,-5.21826 3.16916,0 5.67248,1.21811 6.00797,4.86728 l 3.94854,0 c -0.0875,-6.03894 -4.95503,-7.94869 -9.91521,-7.94869 -5.20794,0 -10.58105,2.43106 -10.58105,8.64549 0,5.43504 4.28403,7.12801 8.57839,8.52161 1.92007,0.60906 4.12919,1.21811 5.87377,2.21944 1.58974,0.91358 2.67365,2.21428 2.67365,4.21693 0,4.00015 -3.83498,5.56408 -7.1693,5.56408 -3.54594,0 -6.54993,-1.73942 -6.75123,-5.73957 l -4.0466,0.0467 c 0.41808,6.43121 5.03761,8.86227 10.66879,8.86227 5.50214,0 11.29333,-2.60655 11.29333,-9.21325 m -39.62989,-22.64344 -3.91756,0 0,31.42313 3.91756,0 0,-31.42313 z m -21.33758,31.42313 0,-3.16915 -15.38123,0 0,-11.48431 14.17344,0 0,-3.16399 -14.17344,0 0,-10.44168 14.79798,0 0,-3.164 -18.66909,0 0,31.42313 19.25234,0 z m -41.92675,-23.2112 c 0,4.95502 -4.29435,5.56408 -8.08804,5.56408 l -4.87761,0 0,-10.65331 5.96152,0 c 3.46336,0 7.00413,0.6968 7.00413,5.08923 m 4.78986,23.2112 c -0.54195,-0.82068 -0.7897,-1.86846 -1.00132,-3.04012 -0.41292,-2.38976 -0.45422,-4.6092 -0.66067,-6.69444 -0.33571,-3.39626 -1.29554,-5.65183 -5.12536,-6.51896 3.62336,-1.04778 5.99765,-3.26206 5.99765,-7.4377 0,-6.17314 -5.20794,-7.73191 -10.12684,-7.73191 l -10.74621,0 0,31.42313 3.90724,0 0,-14.56571 6.42605,0 c 5.03761,0 5.29053,2.21944 5.70861,6.82864 0.20646,2.61171 0.24775,5.25956 1.20778,7.73707 l 4.41307,0 z m -56.38406,-31.42313 -3.91241,0 0,31.42313 3.91241,0 0,-31.42313 z m 19.16975,31.42313 -14.62765,-17.34259 13.21341,-14.08054 -5.00665,0 -12.66628,14.34377 13.96182,17.07936 5.12535,0 z M 331.06949,375.5766 c 0,8.22225 -3.16915,12.65597 -11.38108,12.65597 l -5.41956,0 0,-25.13128 4.67115,0 c 2.62719,0 5.58472,0.17013 7.83513,1.86846 3.29303,2.47751 4.29436,6.6067 4.29436,10.60685 m 4.07757,0 c 0,-6.38992 -1.87362,-11.82496 -7.62351,-14.29731 -2.41558,-1.04262 -5.70861,-1.3007 -8.3358,-1.3007 l -8.8313,0 0,31.42313 7.24672,0 c 1.66716,0 3.41691,0 5.08407,-0.17549 8.63,-0.91358 12.45982,-7.04027 12.45982,-15.64963 m -44.30103,15.82512 0,-31.42313 -3.53562,0 0,27.34039 -14.9683,-27.34039 -5.24407,0 0,31.42313 3.53561,0 0,-27.25265 14.96831,27.25265 5.24407,0 z m -48.21344,-11.38624 -12.29465,0 c 1.99749,-5.47633 3.79369,-11.16945 6.0441,-16.51675 l 6.25055,16.51675 z m 8.83647,11.38624 -12.71274,-31.42313 -4.29436,0 -12.25336,31.42313 3.95886,0 3.08656,-8.30483 14.58636,0 3.12786,8.30483 4.50082,0 z m -41.80287,0 0,-3.16915 -14.79798,0 0,-28.25398 -3.91241,0 0,31.42313 18.71039,0 z m 300.26632,253.64366 0,-14.86508 -10.99396,0 0,3.0814 7.20543,0 0,9.35262 c -2.08008,0.6555 -4.2479,0.95487 -6.41573,0.95487 -7.38092,0 -10.37974,-6.30217 -10.37974,-13.16695 0,-6.26604 2.62203,-12.785 9.54874,-12.785 3.58208,0 6.12669,1.78071 6.70994,5.60538 l 4.07757,0 c -0.4955,-6.21443 -5.12536,-8.86228 -10.6275,-8.86228 -9.1668,0 -13.91536,7.3448 -13.91536,16.25352 0,9.4352 4.99631,16.17094 14.45732,16.17094 3.50465,0 6.968,-0.77939 10.33329,-1.73942 m -38.21048,-21.82276 c 0,4.96018 -4.28919,5.56924 -8.08804,5.56924 l -4.87245,0 0,-10.65331 5.9512,0 c 3.46335,0 7.00929,0.6968 7.00929,5.08407 m 4.78986,23.2112 c -0.54712,-0.82068 -0.79487,-1.85814 -1.00133,-3.03496 -0.41808,-2.39493 -0.45937,-4.6092 -0.66583,-6.69961 -0.3357,-3.39109 -1.28521,-5.65182 -5.12535,-6.51895 3.62336,-1.03746 5.99764,-3.2569 5.99764,-7.43254 0,-6.1783 -5.20277,-7.73707 -10.12167,-7.73707 l -10.75137,0 0,31.42313 3.91756,0 0,-14.56056 6.41573,0 c 5.04793,0 5.29568,2.21944 5.71376,6.82865 0.20646,2.60655 0.24776,5.26472 1.20779,7.73191 l 4.41307,0 z m -33.63224,-11.99014 0,-19.43299 -3.95886,0 0,18.6949 c 0,1.86846 -0.0516,3.78337 -0.74325,5.52279 -1.25424,3.08141 -4.25823,4.5163 -7.3448,4.5163 -2.62203,0 -5.33181,-0.99617 -6.79251,-3.39109 -1.20779,-1.95621 -1.25424,-4.29952 -1.25424,-6.56541 l 0,-18.77749 -4.07757,0 0,19.34525 c 0,8.60936 4.07757,12.64564 12.08819,12.64564 7.74739,0 12.08304,-4.5163 12.08304,-12.5579 m -38.55113,3.08141 c 0,5.26472 -4.33565,5.69828 -8.3358,5.69828 l -5.16665,0 0,-11.5256 6.37444,0 c 3.92272,0 7.12801,1.17682 7.12801,5.82732 m -1.1665,-14.30247 c 0,4.13434 -2.99882,5.48149 -6.50347,5.48149 l -5.83248,0 0,-10.47781 6.41573,0 c 3.16915,0 5.92022,1.34198 5.92022,4.99632 m 5.25439,14.47796 c 0,-4.69179 -2.70978,-6.91123 -6.83897,-7.69577 3.46336,-0.95488 5.63119,-3.21045 5.63119,-7.12801 0,-5.69828 -4.87761,-7.86611 -9.59004,-7.86611 l -10.62234,0 0,31.42313 10.12683,0 c 5.54344,0 11.29333,-1.64652 11.29333,-8.73324 M 371.2021,623.22262 c 0,4.96018 -4.29435,5.56924 -8.08805,5.56924 l -4.8776,0 0,-10.65331 5.96152,0 c 3.45819,0 7.00413,0.6968 7.00413,5.08407 m 4.78986,23.2112 c -0.54712,-0.82068 -0.79487,-1.85814 -1.00133,-3.03496 -0.41808,-2.39493 -0.45421,-4.6092 -0.67099,-6.69961 -0.33034,-3.39109 -1.28521,-5.65182 -5.12019,-6.51895 3.62336,-1.03746 5.99764,-3.2569 5.99764,-7.43254 0,-6.1783 -5.20278,-7.73707 -10.12167,-7.73707 l -10.75138,0 0,31.42313 3.91241,0 0,-14.56056 6.42089,0 c 5.04277,0 5.29568,2.21944 5.71376,6.82865 0.20646,2.60655 0.24775,5.26472 1.20779,7.73191 l 4.41307,0 z m -38.96921,-11.38108 -12.2895,0 c 1.99749,-5.47634 3.78853,-11.17462 6.03894,-16.51675 l 6.25056,16.51675 z m 8.83646,11.38108 -12.70758,-31.42313 -4.29435,0 -12.25337,31.42313 3.95886,0 3.08657,-8.30483 14.58635,0 3.1227,8.30483 4.50082,0 z m -37.71498,0 0,-31.42313 -6.25056,0 -9.66746,26.56617 -9.92037,-26.56617 -6.25056,0 0,31.42313 3.54078,0 0,-28.33656 10.66879,28.33656 3.58723,0 10.6275,-28.29527 0,28.29527 3.66465,0 z m 203.86989,30.01664 0,-3.16916 -17.99294,0 0,31.42313 3.87111,0 0,-14.60185 13.46116,0 0,-3.12786 -13.46116,0 0,-10.52426 14.12183,0 z m -34.82971,5.56408 c 0,5.39375 -4.08789,6.09055 -8.2945,6.09055 l -4.13435,0 0,-11.69593 5.25439,0 c 3.88143,0 7.17446,0.86197 7.17446,5.60538 m 4.07758,0.30473 c 0,-2.95237 -1.1665,-5.82732 -3.61821,-7.47383 -2.2504,-1.52264 -4.92405,-1.56393 -7.5048,-1.56393 l -9.29067,0 0,31.42312 3.90725,0 0,-13.43018 5.54343,0 c 1.96653,0 3.8866,-0.21678 5.47118,-0.82584 3.45303,-1.30069 5.49182,-4.29952 5.49182,-8.12934 m -38.04531,6.56541 c 0,6.38992 -2.37429,13.13082 -9.5023,13.13082 -7.13317,0 -9.461,-6.78219 -9.461,-13.13082 0,-6.30733 2.41557,-13.00178 9.461,-13.00178 7.25705,0 9.5023,6.52412 9.5023,13.00178 m 4.11886,-0.12883 c 0,-9.17712 -4.03628,-16.12448 -13.57987,-16.12448 -9.29583,0 -13.62632,7.46867 -13.62632,16.34126 0,9.04809 4.12403,16.25352 13.58503,16.25352 9.5023,0 13.62116,-7.43254 13.62116,-16.4703 m -54.46915,-15.47413 -3.90725,0 0,31.42828 3.90725,0 0,-31.42828 z m 19.17491,31.42312 -14.62765,-17.33743 13.20308,-14.08569 -4.99115,0 -12.67661,14.34376 13.96698,17.07936 5.12535,0 z m -38.00918,0 0,-31.42312 -3.54077,0 0,27.34038 -14.96315,-27.34038 -5.24923,0 0,31.42312 3.54078,0 0,-27.25264 14.96314,27.25264 5.24923,0 z m -37.00785,0 0,-3.16399 -15.37606,0 0,-11.48431 14.16828,0 0,-3.16915 -14.16828,0 0,-10.43652 14.79282,0 0,-3.16915 -18.66394,0 0,31.42312 19.24718,0 z m -36.83752,-15.81995 c 0,8.21708 -3.16915,12.65596 -11.38107,12.65596 l -5.41956,0 0,-25.13127 4.67114,0 c 2.6272,0 5.58473,0.17012 7.83513,1.86845 3.29303,2.47236 4.29436,6.60671 4.29436,10.60686 m 4.07757,0 c 0,-6.39508 -1.86845,-11.82497 -7.61835,-14.30248 -2.42073,-1.04262 -5.71376,-1.30069 -8.34096,-1.30069 l -8.8313,0 0,31.42312 7.25189,0 c 1.66716,0 3.4169,0 5.08406,-0.17549 8.63,-0.90842 12.45466,-7.03511 12.45466,-15.64446 m -38.17434,15.81995 0,-3.16399 -15.37607,0 0,-11.48431 14.16828,0 0,-3.16915 -14.16828,0 0,-10.43652 14.79798,0 0,-3.16915 -18.66909,0 0,31.42312 19.24718,0 z m -34.58712,-31.42312 -3.9124,0 0,31.42828 3.9124,0 0,-31.42828 z m -21.66791,22.51956 c 0,5.25955 -4.33565,5.69828 -8.3358,5.69828 l -5.17181,0 0,-11.53076 6.3796,0 c 3.91756,0 7.12801,1.17682 7.12801,5.83248 m -1.1665,-14.30248 c 0,4.12919 -3.00398,5.47634 -6.50347,5.47634 l -5.83764,0 0,-10.48298 6.42089,0 c 3.16915,0 5.92022,1.34715 5.92022,5.00664 m 5.24407,14.47281 c 0,-4.69696 -2.69946,-6.91639 -6.82865,-7.69578 3.4582,-0.94971 5.62602,-3.2156 5.62602,-7.12801 0,-5.69312 -4.8776,-7.8661 -9.58487,-7.8661 l -10.6275,0 0,31.42312 10.12683,0 c 5.54344,0 11.28817,-1.64651 11.28817,-8.73323"
       id="path42"
       style="fill:#000000;fill-opacity:1;fill-rule:nonzero;stroke:none" />
    <path
       d="m 474.2171,495.99852 -0.94972,-3.6853 -4.65566,-17.96197 -18.5607,0 -35.7278,0 0,51.7026 17.95681,0 0,-33.74063 22.42665,0 2.12137,8.19128 c 6.1112,23.57766 29.25014,46.36562 52.67812,51.87809 l 2.44655,0.57292 0,-18.49876 c -16.42385,-4.70728 -33.45159,-21.91567 -37.73562,-38.45823 m -92.32969,-64.83602 -33.22448,0 -19.36073,0 -7.22608,17.96197 -10.79783,26.8294 c -0.80003,1.99233 -4.03628,4.18597 -6.18862,4.18597 l -44.68298,0 -19.5672,0 -14.59151,15.32445 -38.2621,40.20281 0,26.05518 60.55455,-63.62047 56.54924,0 c 9.50229,0 19.32976,-6.65316 22.86022,-15.46898 l 13.48696,-33.50836 40.45056,0 0,57.71057 17.96197,0 0,-57.71057 0,-17.96197 -17.96197,0 z"
       id="path50"
       style="fill:#1068c1;fill-opacity:1;fill-rule:nonzero;stroke:none" />
    <path
       d="m 244.34877,645.59386 c 0,1.87878 -1.53812,3.4169 -3.41691,3.4169 l -46.88693,0 c -1.88394,0 -3.42206,-1.53812 -3.42206,-3.4169 l 0,-46.88694 c 0,-1.88394 1.53812,-3.42206 3.42206,-3.42206 l 46.88693,0 c 1.87879,0 3.41691,1.53812 3.41691,3.42206 l 0,46.88694 z"
       id="path54"
       style="fill:#f90505;fill-opacity:1;fill-rule:nonzero;stroke:none" />
    <path
       d="m 236.13994,622.14985 c 0,10.29717 -8.35644,18.65361 -18.64845,18.65361 -10.30748,0 -18.65877,-8.35644 -18.65877,-18.65361 0,-10.30232 8.35129,-18.65361 18.65877,-18.65361 10.29201,0 18.64845,8.35129 18.64845,18.65361 z"
       id="path58"
       style="fill:none;stroke:#ffffff;stroke-width:4.19112635;stroke-linecap:butt;stroke-linejoin:miter;stroke-miterlimit:4;stroke-opacity:1;stroke-dasharray:none" />
  </g>
</svg>
