<?xml version="1.0" encoding="utf-8"?>
<!-- Generator: Adobe Illustrator 21.1.0, SVG Export Plug-In . SVG Version: 6.00 Build 0)  -->
<svg version="1.1" id="logo" xmlns="http://www.w3.org/2000/svg" xmlns:xlink="http://www.w3.org/1999/xlink" x="0px" y="0px"
	 viewBox="0 0 841.9 595.3" style="enable-background:new 0 0 841.9 595.3;" xml:space="preserve">
<style type="text/css">
	.st0{fill:#B1B2B3;}
	.st1{fill:#BAD16A;}
	.st2{fill:#6BA532;}
</style>
<ellipse id="schatten" class="st0" cx="186.8" cy="444.1" rx="94.3" ry="6.9"/>
<g id="bildelement">
	<path class="st1" d="M107.8,268.1c0-41.8,32.5-76,73.5-78.8v-46.4c-66.7,2.8-119.9,57.8-119.9,125.2c0,0.5,0,0.9,0,1.4h46.3
		C107.8,269,107.8,268.5,107.8,268.1z"/>
	<path class="st1" d="M265.7,268c0-41.8-32.5-76-73.5-78.8v-46.4c66.7,2.8,119.9,57.8,119.9,125.2c0,0.5,0,0.9,0,1.4h-46.3
		C265.7,269,265.7,268.5,265.7,268z"/>
	<path class="st2" d="M264.8,280.3c-2.8,18.2-11.4,38.4-24.4,50.2l-22.2,22.1l-10.8,0l-0.1-4l14.3-14.3
		c10.5-9.5,17.1-23.2,17.1-38.4c0-28.6-23.2-51.9-51.9-51.9h0v0h0c-28.6,0-51.9,23.2-51.9,51.9c0,15.3,6.6,28.9,17.1,38.4l14.3,14.3
		l-0.1,4l-10.8,0l-22.2-22.1c-13-11.8-21.6-32-24.4-50.2H62.1c3.1,32.1,18.3,60.6,41,81l83.7,82.6v0l83.7-82.6
		c22.7-20.4,37.9-48.9,41-81H264.8z"/>
</g>
<g id="text">
	<path d="M407.7,194c5.8,4.9,8.7,12.5,8.7,22.7c0,10.2-3,17.7-8.9,22.4c-6,4.7-15.1,7.1-27.3,7.1h-11v23.1h-18.5v-82.8H380
		C392.7,186.6,401.9,189.1,407.7,194z M394.2,226.6c2.2-2.5,3.3-6.1,3.3-10.9c0-4.8-1.4-8.2-4.3-10.2c-2.9-2-7.4-3-13.4-3h-10.5
		v27.8h12.4C387.8,230.4,392,229.1,394.2,226.6z"/>
	<path d="M490.2,237.6c0,9.2-3.2,17-9.6,23.3c-6.4,6.3-14.4,9.5-24.1,9.5c-9.7,0-17.7-3.2-24.1-9.5c-6.4-6.3-9.6-14.1-9.6-23.3
		c0-9.2,3.2-17,9.6-23.4c6.4-6.4,14.4-9.5,24.1-9.5c9.7,0,17.7,3.2,24.1,9.5C487,220.5,490.2,228.3,490.2,237.6z M440.7,237.6
		c0,5.2,1.5,9.5,4.4,12.7c3,3.3,6.8,4.9,11.4,4.9c4.6,0,8.4-1.6,11.4-4.9c3-3.3,4.4-7.5,4.4-12.7c0-5.2-1.5-9.5-4.4-12.8
		c-3-3.3-6.8-5-11.4-5c-4.6,0-8.4,1.7-11.4,5C442.2,228.1,440.7,232.4,440.7,237.6z"/>
	<path d="M521.2,269.4h-17.8v-87.9h17.8V269.4z"/>
	<path d="M541.5,197.6c-2-2-3-4.5-3-7.4c0-2.9,1-5.4,3-7.4c2-2,4.5-3,7.4-3c2.9,0,5.4,1,7.4,3c2,2,3,4.5,3,7.4c0,2.9-1,5.4-3,7.4
		c-2,2-4.5,3-7.4,3C545.9,200.6,543.5,199.6,541.5,197.6z M557.8,269.4H540v-63.7h17.8V269.4z"/>
	<path d="M599.6,218.5v28.5c0,2.4,0.6,4.4,1.9,5.7c1.3,1.4,2.8,2.1,4.5,2.1c3.3,0,6.1-1.5,8.4-4.5l6.6,12.4
		c-5.5,5.1-11.4,7.6-17.5,7.6c-6.1,0-11.3-2-15.5-6c-4.2-4-6.3-9.5-6.3-16.5v-29.4h-7.5v-12.8h7.5v-19.1h17.9v19.1H615v12.8H599.6z"
		/>
	<path d="M633.3,197.6c-2-2-3-4.5-3-7.4c0-2.9,1-5.4,3-7.4c2-2,4.5-3,7.4-3c2.9,0,5.4,1,7.4,3c2,2,3,4.5,3,7.4c0,2.9-1,5.4-3,7.4
		c-2,2-4.5,3-7.4,3C637.8,200.6,635.3,199.6,633.3,197.6z M649.6,269.4h-17.8v-63.7h17.8V269.4z"/>
	<path d="M685.7,269.4h-17.8v-87.9h17.8v45.1l19.8-21.1h22.4l-24.3,25.8l25.2,38h-21.1L691.5,245l-5.8,6V269.4z"/>
	<path d="M387.5,303.5c7.7,0,14.5,3,20.3,9.1c5.8,6,8.6,13.8,8.6,23.3c0,9.5-3,17.4-8.9,23.8c-5.9,6.4-12.7,9.6-20.2,9.6
		c-7.5,0-13.8-3.1-18.8-9.4v8.4h-17.8v-87.9h17.8v31.3C373.4,306.3,379.7,303.5,387.5,303.5z M368.3,336.5c0,5.2,1.4,9.4,4.3,12.7
		c2.9,3.3,6.4,4.9,10.5,4.9c4.1,0,7.7-1.6,10.8-4.9c3.1-3.3,4.6-7.5,4.6-12.6c0-5.1-1.5-9.4-4.5-12.9c-3-3.5-6.6-5.2-10.8-5.2
		c-4.2,0-7.7,1.7-10.6,5.2C369.7,327.1,368.3,331.4,368.3,336.5z"/>
	<path d="M484.7,359.1c-7.2,6.8-15.6,10.2-25.3,10.2c-9.7,0-17.7-3-24-8.9c-6.3-6-9.5-14-9.5-24c0-10,3.2-18,9.7-23.9
		c6.4-5.9,14-8.9,22.8-8.9c8.8,0,16.2,2.6,22.3,7.9c6.1,5.3,9.2,12.6,9.2,21.8v9.5h-46.4c0.5,3.5,2.4,6.3,5.4,8.5
		c3.1,2.2,6.6,3.3,10.4,3.3c6.2,0,11.4-2.1,15.4-6.3L484.7,359.1z M467.7,321.3c-2.4-2.1-5.4-3.1-8.9-3.1c-3.5,0-6.7,1.1-9.7,3.2
		c-2.9,2.1-4.6,5-5.1,8.6h28C471.5,326.3,470.1,323.4,467.7,321.3z"/>
	<path d="M506.1,296.5c-2-2-3-4.5-3-7.4c0-2.9,1-5.4,3-7.4c2-2,4.5-3,7.4-3c2.9,0,5.4,1,7.4,3c2,2,3,4.5,3,7.4c0,2.9-1,5.4-3,7.4
		c-2,2-4.5,3-7.4,3C510.6,299.5,508.1,298.5,506.1,296.5z M522.4,368.3h-17.8v-63.7h17.8V368.3z"/>
	<path class="st2" d="M617.4,339v-34.3h17.9v63.7h-17.9v-8.4c-4.4,6.2-10.1,9.4-17.1,9.4c-7,0-12.9-2.2-17.6-6.6
		c-4.7-4.4-7.1-10.9-7.1-19.5v-38.6h17.9v34.7c0,9.8,3.6,14.7,10.8,14.7c3.6,0,6.6-1.3,9.2-3.8C616.1,347.6,617.4,343.9,617.4,339z"
		/>
	<path class="st2" d="M672.8,332.8v35.5h-17.8v-63.7h17.8v7.1c5.4-5.4,11.4-8.2,18.1-8.2c6.7,0,12.3,2.4,16.9,7.1
		c4.5,4.7,6.8,11.1,6.8,19v38.7h-17.8v-36c0-9.8-3.6-14.7-10.8-14.7c-3.6,0-6.7,1.3-9.3,3.9C674.1,324.1,672.8,327.8,672.8,332.8z"
		/>
	<path class="st2" d="M780.3,348.5c0,6.3-2.3,11.3-6.9,15.1c-4.6,3.8-10.5,5.7-17.6,5.7c-4.7,0-9.7-0.8-14.8-2.5
		c-5.1-1.7-9.8-4.2-13.9-7.5l7.8-11.1c6.6,5.1,13.7,7.7,21.2,7.7c2.3,0,4.1-0.5,5.4-1.4c1.3-0.9,2-2.1,2-3.6c0-1.5-0.9-2.9-2.8-4.1
		c-1.9-1.3-4.5-2.4-8.1-3.6c-3.5-1.1-6.2-2.1-8.1-2.8c-1.9-0.8-4-1.9-6.3-3.4c-4.8-3-7.2-7.4-7.2-13.3c0-5.9,2.4-10.7,7.1-14.4
		c4.7-3.7,10.9-5.6,18.4-5.6c7.5,0,15,2.5,22.5,7.6l-6.6,11.8c-5.5-3.8-11-5.7-16.5-5.7c-5.5,0-8.2,1.5-8.2,4.5c0,1.7,0.9,3,2.6,3.9
		c1.7,0.9,4.6,2.1,8.6,3.3c4,1.3,6.9,2.2,8.6,2.9c1.7,0.7,3.7,1.7,6.1,3.1C778.1,337.7,780.3,342.2,780.3,348.5z"/>
</g>
</svg>
